HIERARCHY
ROOT root
{
	OFFSET 0.000000 0.000000 0.000000
	CHANNELS 6 Xposition Yposition Zposition Zrotation Yrotation Xrotation
	JOINT lhip
	{
		OFFSET 0.058581 -0.082280 -0.017664
		CHANNELS 3 Zrotation Yrotation Xrotation
		JOINT lknee
		{
			OFFSET 0.043451 -0.386469 0.008037
			CHANNELS 3 Zrotation Yrotation Xrotation
			JOINT lankle
			{
				OFFSET -0.014790 -0.426874 -0.037428
				CHANNELS 3 Zrotation Yrotation Xrotation
				JOINT ltoe
				{
					OFFSET 0.041054 -0.060286 0.122042
					CHANNELS 3 Zrotation Yrotation Xrotation
					End Site
					{
						OFFSET 0.000000 0.000000 0.000000
					}
				}
			}
		}
	}
	JOINT rhip
	{
		OFFSET -0.060310 -0.090513 -0.013543
		CHANNELS 3 Zrotation Yrotation Xrotation
		JOINT rknee
		{
			OFFSET -0.043257 -0.383688 -0.004843
			CHANNELS 3 Zrotation Yrotation Xrotation
			JOINT rankle
			{
				OFFSET 0.019056 -0.420046 -0.034562
				CHANNELS 3 Zrotation Yrotation Xrotation
				JOINT rtoe
				{
					OFFSET -0.034840 -0.062106 0.130323
					CHANNELS 3 Zrotation Yrotation Xrotation
					End Site
					{
						OFFSET 0.000000 0.000000 0.000000
					}
				}
			}
		}
	}
	JOINT lowerback
	{
		OFFSET 0.004439 0.124404 -0.038385
		CHANNELS 3 Zrotation Yrotation Xrotation
		JOINT upperback
		{
			OFFSET 0.004488 0.137956 0.026820
			CHANNELS 3 Zrotation Yrotation Xrotation
			JOINT chest
			{
				OFFSET -0.002265 0.056032 0.002855
				CHANNELS 3 Zrotation Yrotation Xrotation
				JOINT lowerneck
				{
					OFFSET -0.013390 0.211636 -0.033468
					CHANNELS 3 Zrotation Yrotation Xrotation
					JOINT upperneck
					{
						OFFSET 0.010113 0.088937 0.050410
						CHANNELS 3 Zrotation Yrotation Xrotation
						End Site
						{
							OFFSET 0.000000 0.000000 0.000000
						}
					}
				}
				JOINT lclavicle
				{
					OFFSET 0.071702 0.114000 -0.018898
					CHANNELS 3 Zrotation Yrotation Xrotation
					JOINT lshoulder
					{
						OFFSET 0.122921 0.045205 -0.019046
						CHANNELS 3 Zrotation Yrotation Xrotation
						JOINT lelbow
						{
							OFFSET 0.255332 -0.015649 -0.022946
							CHANNELS 3 Zrotation Yrotation Xrotation
							JOINT lwrist
							{
								OFFSET 0.265709 0.012698 -0.007375
								CHANNELS 3 Zrotation Yrotation Xrotation
								End Site
								{
									OFFSET 0.000000 0.000000 0.000000
								}
							}
						}
					}
				}
				JOINT rclavicle
				{
					OFFSET -0.082954 0.112472 -0.023707
					CHANNELS 3 Zrotation Yrotation Xrotation
					JOINT rshoulder
					{
						OFFSET -0.113228 0.046853 -0.008472
						CHANNELS 3 Zrotation Yrotation Xrotation
						JOINT relbow
						{
							OFFSET -0.260127 -0.014369 -0.031269
							CHANNELS 3 Zrotation Yrotation Xrotation
							JOINT rwrist
							{
								OFFSET -0.269108 0.006794 -0.006027
								CHANNELS 3 Zrotation Yrotation Xrotation
								End Site
								{
									OFFSET 0.000000 0.000000 0.000000
								}
							}
						}
					}
				}
			}
		}
	}
}
MOTION
Frames: 8
Frame Time: 0.033333
-0.016318 0.286331 0.967860 97.394754 -6.610158 89.861591 -7.859055 -6.039997 -23.077347 -3.821189 -1.446568 40.214858 1.449168 11.132549 -17.484957 0.000000 -0.000000 0.000000 -12.509220 0.976590 -21.856815 -8.129446 3.102093 43.390370 3.071873 -15.210845 -18.071359 0.000000 -0.000000 0.000000 16.622700 -5.585255 31.487168 8.483510 0.286849 -2.556186 5.691112 0.446992 1.725050 -7.445831 -32.033979 3.771616 4.284398 -17.602721 -13.337716 -6.860456 6.516048 1.029449 -74.630289 3.160177 6.790996 -5.288333 -48.171916 34.294495 -2.499971 -9.682351 -18.161313 3.519670 3.861118 -4.472532 50.623774 5.826905 -2.947342 -15.913011 28.629681 -13.958258 2.924763 1.595639 7.552252 
-0.018737 0.282391 0.968262 95.434714 -8.093040 89.906746 -8.603363 -5.836032 -22.406461 -3.936331 0.072856 38.689909 1.522428 11.130224 -17.064381 0.000000 -0.000000 0.000000 -13.515311 1.732606 -22.707512 -8.496638 4.028980 43.636936 3.097887 -14.537055 -17.841065 0.000000 -0.000000 0.000000 16.514549 -7.043043 32.314578 7.111158 -0.112247 -3.008646 4.503684 -0.126728 2.513783 -9.877108 -32.296502 6.384750 4.587513 -18.289063 -14.074367 -6.129271 5.187080 2.000338 -74.937493 1.953439 6.622613 -3.038412 -48.454874 30.944771 -1.659916 -9.103987 -19.147715 2.156464 4.449217 -4.266522 52.434758 6.555703 -2.473679 -14.904408 28.596354 -12.848508 1.528211 1.859352 7.537840 
-0.019885 0.277581 0.968690 93.542278 -9.391703 89.587611 -9.499007 -4.859941 -21.135706 -3.941174 0.786741 37.151934 1.416183 10.909136 -16.787621 0.000000 -0.000000 0.000000 -14.034113 2.428699 -22.841096 -8.822781 5.282724 43.532534 2.975760 -14.237161 -17.733903 0.000000 -0.000000 0.000000 15.890100 -8.307717 33.456367 5.841859 -1.080590 -3.320222 3.900818 -0.614833 3.449934 -12.559086 -32.592082 8.621862 5.000903 -17.893480 -15.129250 -5.733315 3.628354 2.075176 -75.175922 1.518468 6.491482 -0.833567 -48.402732 27.567320 0.281493 -8.532549 -20.093721 0.515419 5.771262 -4.438083 53.802799 6.637247 -1.464612 -13.544767 28.839774 -12.081629 0.189360 1.306221 7.826850 
-0.021160 0.271056 0.969236 91.134859 -11.079936 89.614421 -10.529710 -3.496667 -19.970223 -3.903521 2.031454 35.137911 1.251788 10.597026 -16.297366 0.000000 -0.000000 0.000000 -14.596271 3.030596 -23.511268 -9.496661 6.835013 43.502714 2.930456 -13.439554 -17.528055 0.000000 -0.000000 0.000000 15.289499 -9.865534 34.512163 3.661321 -2.168849 -3.498149 2.546667 -1.062770 3.984920 -15.647823 -32.725370 11.200450 5.765788 -16.892305 -16.800868 -5.895902 2.484635 1.747998 -74.163370 1.010796 5.743165 1.400381 -48.278834 23.090032 -0.096889 -7.789980 -19.892313 -0.798471 6.499185 -4.670870 55.638587 6.308772 -0.413053 -11.191378 29.425354 -10.235520 -0.562171 0.949714 9.075521 
-0.022030 0.266998 0.969666 89.942504 -11.965384 89.491512 -10.990577 -2.863842 -19.150027 -3.926794 2.780991 33.998731 1.161408 10.379089 -15.946154 0.000000 -0.000000 0.000000 -14.928300 3.557128 -23.697123 -9.773684 7.392812 43.589072 2.789203 -13.142215 -17.444307 0.000000 -0.000000 0.000000 14.990265 -10.872201 34.940911 2.368582 -2.906668 -3.534421 1.663079 -1.273061 4.109447 -17.839210 -32.394781 13.025541 5.992019 -16.163939 -17.277379 -6.171861 1.146723 2.006590 -73.394686 0.470753 5.149895 3.321291 -47.712702 20.087420 -0.252429 -7.954293 -19.371584 -1.715787 7.140567 -4.562803 56.991561 5.974755 -0.029072 -10.207128 29.412293 -9.041962 -0.610402 1.108475 9.655371 
-0.022589 0.261110 0.969503 88.538991 -13.106563 89.436765 -11.554853 -1.958963 -18.273640 -4.052123 3.446668 32.721177 0.991640 10.234297 -15.673834 0.000000 -0.000000 0.000000 -15.315187 4.052497 -24.039298 -10.092943 8.220777 43.813496 2.697526 -12.755020 -17.541357 0.000000 -0.000000 0.000000 14.457823 -11.897979 35.091124 0.690227 -3.792065 -3.579699 0.447373 -1.673879 4.355918 -20.214172 -31.619677 14.878326 5.988689 -14.997554 -17.684072 -6.743964 0.041140 1.971634 -71.924681 -0.178598 4.521050 5.202622 -46.878520 17.230635 -0.744784 -7.989780 -18.540900 -2.329260 7.321126 -4.665917 58.387108 5.383427 0.743163 -8.668208 29.538645 -7.356454 -0.740631 0.842578 10.085501 
-0.024394 0.253986 0.969161 87.856655 -14.162183 89.513254 -11.858876 -1.942784 -17.776473 -4.525622 3.853334 31.601089 0.957035 10.469776 -15.267386 0.000000 -0.000000 0.000000 -15.566507 4.719006 -24.570745 -10.338911 8.878886 44.464756 2.543196 -13.070325 -17.799202 0.000000 -0.000000 0.000000 13.786480 -12.834910 35.189548 -0.802829 -4.644835 -4.489204 -0.685840 -2.103402 4.744874 -21.937358 -30.650381 16.088215 5.777692 -13.768408 -17.511167 -7.218235 -0.549599 1.880412 -70.583154 -0.839568 3.924436 7.062368 -46.051555 14.356689 -0.620394 -7.726888 -17.627297 -2.886327 7.138680 -4.785453 59.835889 4.723214 1.758277 -7.126544 29.211771 -5.623755 -0.994763 0.760277 10.400706 
-0.024665 0.246404 0.968418 87.088680 -15.178900 89.319043 -12.073775 -1.272428 -17.177396 -4.908806 4.340310 31.067928 0.741297 10.354616 -15.124203 0.000000 -0.000000 0.000000 -15.559751 5.571987 -24.753065 -10.741958 9.765136 45.246715 2.379178 -13.698338 -18.059134 0.000000 -0.000000 0.000000 12.905507 -13.427784 34.906845 -2.310563 -5.169579 -4.664339 -1.764840 -2.546333 4.999860 -23.338320 -29.480642 16.887805 5.245717 -12.042228 -17.200675 -7.780384 -0.865761 1.817153 -69.240345 -1.582568 3.309915 8.695798 -45.326570 11.951418 -0.559330 -7.647741 -17.545724 -3.244727 6.548717 -4.834574 61.014111 3.865194 2.777780 -5.642516 29.270781 -3.371442 -0.610698 0.459717 10.366594 
